<svg width="12" height="12" viewBox="0 0 12 12" fill="none" xmlns="http://www.w3.org/2000/svg">
<path d="M9.63506 2.66502C8.97006 2.35502 8.25006 2.13002 7.50006 2.00002C7.49348 1.99981 7.48694 2.00105 7.48089 2.00364C7.47485 2.00623 7.46944 2.01012 7.46506 2.01502C7.37506 2.18002 7.27006 2.39502 7.20006 2.56002C6.40456 2.44002 5.59556 2.44002 4.80006 2.56002C4.73006 2.39002 4.62506 2.18002 4.53006 2.01502C4.52506 2.00502 4.51006 2.00002 4.49506 2.00002C3.74506 2.13002 3.03006 2.35502 2.36006 2.66502C2.35506 2.66502 2.35006 2.67002 2.34506 2.67502C0.985059 4.71002 0.610059 6.69002 0.795059 8.65002C0.795059 8.66002 0.800059 8.67002 0.810059 8.67502C1.71006 9.33502 2.57506 9.73502 3.43006 10C3.44506 10.005 3.46006 10 3.46506 9.99002C3.66506 9.71502 3.84506 9.42502 4.00006 9.12002C4.01006 9.10002 4.00006 9.08002 3.98006 9.07502C3.69506 8.96502 3.42506 8.83502 3.16006 8.68502C3.14006 8.67502 3.14006 8.64502 3.15506 8.63002C3.21006 8.59002 3.26506 8.54502 3.32006 8.50502C3.33006 8.49502 3.34506 8.49502 3.35506 8.50002C5.07506 9.28502 6.93006 9.28502 8.63006 8.50002C8.64006 8.49502 8.65506 8.49502 8.66506 8.50502C8.72006 8.55002 8.77506 8.59002 8.83006 8.63502C8.85006 8.65002 8.85006 8.68002 8.82506 8.69002C8.56506 8.84502 8.29006 8.97002 8.00506 9.08002C7.98506 9.08502 7.98006 9.11002 7.98506 9.12502C8.14506 9.43002 8.32506 9.72002 8.52006 9.99502C8.53506 10 8.55006 10.005 8.56506 10C9.42506 9.73502 10.2901 9.33502 11.1901 8.67502C11.2001 8.67002 11.2051 8.66002 11.2051 8.65002C11.4251 6.38502 10.8401 4.42002 9.65506 2.67502C9.65006 2.67002 9.64506 2.66502 9.63506 2.66502ZM4.26006 7.45502C3.74506 7.45502 3.31506 6.98002 3.31506 6.39502C3.31506 5.81002 3.73506 5.33502 4.26006 5.33502C4.79006 5.33502 5.21006 5.81502 5.20506 6.39502C5.20506 6.98002 4.78506 7.45502 4.26006 7.45502ZM7.74506 7.45502C7.23006 7.45502 6.80006 6.98002 6.80006 6.39502C6.80006 5.81002 7.22006 5.33502 7.74506 5.33502C8.27506 5.33502 8.69506 5.81502 8.69006 6.39502C8.69006 6.98002 8.27506 7.45502 7.74506 7.45502Z" fill="#A8A8A8"/>
</svg>
