<svg width="12" height="12" viewBox="0 0 12 12" fill="none" xmlns="http://www.w3.org/2000/svg">
<path d="M5.37496 6.52C5.37496 6.235 5.13996 6 4.85496 6C4.56996 6 4.33496 6.235 4.33496 6.52C4.33496 6.65791 4.38975 6.79018 4.48727 6.8877C4.58478 6.98521 4.71705 7.04 4.85496 7.04C4.99287 7.04 5.12514 6.98521 5.22266 6.8877C5.32018 6.79018 5.37496 6.65791 5.37496 6.52ZM7.04496 7.705C6.81996 7.93 6.33996 8.01 5.99996 8.01C5.65996 8.01 5.17996 7.93 4.95496 7.705C4.9428 7.69198 4.92809 7.6816 4.91175 7.6745C4.8954 7.6674 4.87778 7.66374 4.85996 7.66374C4.84214 7.66374 4.82452 7.6674 4.80817 7.6745C4.79183 7.6816 4.77712 7.69198 4.76496 7.705C4.75194 7.71716 4.74156 7.73187 4.73446 7.74821C4.72736 7.76456 4.7237 7.78218 4.7237 7.8C4.7237 7.81782 4.72736 7.83544 4.73446 7.85179C4.74156 7.86813 4.75194 7.88284 4.76496 7.895C5.11996 8.25 5.79996 8.28 5.99996 8.28C6.19996 8.28 6.87996 8.25 7.23496 7.895C7.24798 7.88284 7.25836 7.86813 7.26546 7.85179C7.27256 7.83544 7.27622 7.81782 7.27622 7.8C7.27622 7.78218 7.27256 7.76456 7.26546 7.74821C7.25836 7.73187 7.24798 7.71716 7.23496 7.705C7.18496 7.655 7.09996 7.655 7.04496 7.705ZM7.14496 6C6.85996 6 6.62496 6.235 6.62496 6.52C6.62496 6.805 6.85996 7.04 7.14496 7.04C7.42996 7.04 7.66496 6.805 7.66496 6.52C7.66496 6.235 7.43496 6 7.14496 6Z" fill="#A8A8A8"/>
<path d="M6 1C3.24 1 1 3.24 1 6C1 8.76 3.24 11 6 11C8.76 11 11 8.76 11 6C11 3.24 8.76 1 6 1ZM8.9 6.665C8.91 6.735 8.915 6.81 8.915 6.885C8.915 8.005 7.61 8.915 6 8.915C4.39 8.915 3.085 8.005 3.085 6.885C3.085 6.81 3.09 6.735 3.1 6.665C2.845 6.55 2.67 6.295 2.67 6C2.66926 5.85662 2.7109 5.71622 2.7897 5.59644C2.86849 5.47665 2.98093 5.38282 3.11288 5.32672C3.24483 5.27063 3.39041 5.25478 3.53135 5.28116C3.67228 5.30754 3.80227 5.37498 3.905 5.475C4.41 5.11 5.11 4.88 5.885 4.855L6.255 3.11C6.26 3.075 6.28 3.045 6.31 3.03C6.34 3.01 6.375 3.005 6.41 3.01L7.62 3.27C7.66104 3.18679 7.72359 3.11607 7.80117 3.06519C7.87875 3.0143 7.96853 2.9851 8.0612 2.98061C8.15387 2.97612 8.24606 2.99651 8.3282 3.03965C8.41033 3.0828 8.47943 3.14714 8.52832 3.22599C8.57721 3.30485 8.60411 3.39534 8.60623 3.4881C8.60836 3.58086 8.58562 3.67249 8.54039 3.7535C8.49516 3.83451 8.42908 3.90194 8.34901 3.9488C8.26893 3.99566 8.17778 4.02024 8.085 4.02C7.805 4.02 7.58 3.8 7.565 3.525L6.48 3.295L6.15 4.855C6.915 4.88 7.6 5.115 8.1 5.475C8.17665 5.40181 8.26837 5.34624 8.36873 5.3122C8.4691 5.27816 8.57569 5.26645 8.68105 5.27791C8.78641 5.28936 8.888 5.3237 8.97871 5.37852C9.06941 5.43333 9.14704 5.50731 9.20617 5.59526C9.2653 5.68322 9.3045 5.78303 9.32102 5.88772C9.33755 5.9924 9.331 6.09944 9.30184 6.20133C9.27268 6.30322 9.2216 6.39751 9.15219 6.4776C9.08278 6.55769 8.99671 6.62165 8.9 6.665Z" fill="#A8A8A8"/>
</svg>
