<svg width="210" height="25" viewBox="0 0 210 25" fill="none" xmlns="http://www.w3.org/2000/svg">
<path d="M23.7266 8.64948L0.00226049 12.3512C0.000755744 12.2725 0 12.1937 0 12.1147C0 11.7993 0.0118861 11.487 0.0356584 11.1775C0.513847 4.92498 5.73918 0 12.1147 0C17.6011 0 22.2359 3.64727 23.7266 8.64948Z" fill="url(#paint0_linear_142_80)"/>
<path d="M16.7295 13.6749L20.7325 20.6295C22.548 18.7921 23.7802 16.3772 24.1284 13.6851C24.1787 13.2975 24.2106 12.904 24.2233 12.5056L16.7295 13.6749Z" fill="url(#paint1_linear_142_80)"/>
<path d="M17.5738 22.9328L12.9996 14.9858L8.07588 23.5401C9.33916 23.9865 10.6985 24.2294 12.1147 24.2294C13.5232 24.2294 14.8755 23.989 16.1332 23.5474C16.629 23.373 17.11 23.1674 17.5738 22.9328Z" fill="url(#paint2_linear_142_80)"/>
<path d="M0.697719 16.1763L8.53357 14.9537L4.66742 21.6707C4.57091 21.5953 4.47556 21.5185 4.38141 21.4403C2.72114 20.0625 1.43495 18.2494 0.697719 16.1763Z" fill="url(#paint3_linear_142_80)"/>
<g filter="url(#filter0_d_142_80)">
<path d="M50.2456 18.1147H47.3859L42.1653 13.4428L36.9779 18.1147H34.085L40.7687 12.2623L34.085 6.40991H36.9613L42.1653 11.0985L47.3692 6.40991H50.2123L43.5785 12.1792L50.2456 18.1147Z" fill="#01D2C4"/>
<path d="M60.3392 12.7777H54.121V10.9322H60.3392V12.7777Z" fill="white"/>
<path d="M76.8322 18.1147H65.1108V6.40991H67.3387V16.3856H76.8322V18.1147ZM93.7385 18.1147H81.7012V6.40991H93.7385V8.13903H83.9124V11.0652H93.2397V12.7944H83.9124V16.3856H93.7385V18.1147ZM107.254 18.1147H105.641L97.8603 6.40991H100.371L106.489 15.8369L112.541 6.40991H114.985L107.254 18.1147ZM131.433 18.1147H119.396V6.40991H131.433V8.13903H121.607V11.0652H130.934V12.7944H121.607V16.3856H131.433V18.1147ZM150.119 18.1147H147.759L145.015 12.8941H138.847V18.1147H136.636V6.40991H146.578C149.238 6.40991 150.252 7.55712 150.252 9.23636V10.0677C150.252 11.5806 149.438 12.6613 147.359 12.8609L150.119 18.1147ZM148.041 10.0843V9.21973C148.041 8.52143 147.576 8.13903 146.578 8.13903H138.847V11.165H146.578C147.576 11.165 148.041 10.7826 148.041 10.0843ZM171.397 18.1147H168.903L162.868 8.6877L156.733 18.1147H154.272L162.053 6.40991H163.666L171.397 18.1147ZM184.354 18.1147H179.183C176.407 18.1147 175.01 17.2668 175.01 15.5875V8.93709C175.01 7.25785 176.407 6.40991 179.183 6.40991H188.344V8.13903H179.183C177.87 8.13903 177.221 8.40505 177.221 8.93709V15.5875C177.221 16.1196 177.87 16.3856 179.183 16.3856H184.354C185.668 16.3856 186.316 16.1362 186.316 15.6208V11.7303H188.527V15.6208C188.527 17.2834 187.131 18.1147 184.354 18.1147ZM205.929 18.1147H193.892V6.40991H205.929V8.13903H196.103V11.0652H205.43V12.7944H196.103V16.3856H205.929V18.1147Z" fill="#EAFFF5"/>
</g>
<defs>
<filter id="filter0_d_142_80" x="30.3552" y="4.81145" width="179.304" height="19.1643" filterUnits="userSpaceOnUse" color-interpolation-filters="sRGB">
<feFlood flood-opacity="0" result="BackgroundImageFix"/>
<feColorMatrix in="SourceAlpha" type="matrix" values="0 0 0 0 0 0 0 0 0 0 0 0 0 0 0 0 0 0 127 0" result="hardAlpha"/>
<feOffset dy="2.13129"/>
<feGaussianBlur stdDeviation="1.86488"/>
<feComposite in2="hardAlpha" operator="out"/>
<feColorMatrix type="matrix" values="0 0 0 0 0 0 0 0 0 0 0 0 0 0 0 0 0 0 0.8 0"/>
<feBlend mode="normal" in2="BackgroundImageFix" result="effect1_dropShadow_142_80"/>
<feBlend mode="normal" in="SourceGraphic" in2="effect1_dropShadow_142_80" result="shape"/>
</filter>
<linearGradient id="paint0_linear_142_80" x1="0" y1="12.1147" x2="24.2233" y2="12.1147" gradientUnits="userSpaceOnUse">
<stop stop-color="#007ADF"/>
<stop offset="1" stop-color="#00ECBC"/>
</linearGradient>
<linearGradient id="paint1_linear_142_80" x1="0" y1="12.1147" x2="24.2233" y2="12.1147" gradientUnits="userSpaceOnUse">
<stop stop-color="#007ADF"/>
<stop offset="1" stop-color="#00ECBC"/>
</linearGradient>
<linearGradient id="paint2_linear_142_80" x1="0" y1="12.1147" x2="24.2233" y2="12.1147" gradientUnits="userSpaceOnUse">
<stop stop-color="#007ADF"/>
<stop offset="1" stop-color="#00ECBC"/>
</linearGradient>
<linearGradient id="paint3_linear_142_80" x1="0" y1="12.1147" x2="24.2233" y2="12.1147" gradientUnits="userSpaceOnUse">
<stop stop-color="#007ADF"/>
<stop offset="1" stop-color="#00ECBC"/>
</linearGradient>
</defs>
</svg>
