<svg width="139" height="38" viewBox="0 0 139 38" fill="none" xmlns="http://www.w3.org/2000/svg">
<g clip-path="url(#clip0_142_112)">
<rect width="139" height="37.1336" rx="8.53069" fill="url(#paint0_linear_142_112)"/>
<path d="M37.8905 16.9219H36.4909C36.451 16.6924 36.3774 16.4891 36.2701 16.3119C36.1629 16.1323 36.0294 15.9801 35.8697 15.8554C35.7101 15.7306 35.5279 15.6371 35.3234 15.5747C35.1213 15.5099 34.903 15.4774 34.6685 15.4774C34.2519 15.4774 33.8826 15.5822 33.5608 15.7918C33.239 15.9988 32.987 16.3032 32.8049 16.7049C32.6228 17.104 32.5317 17.5917 32.5317 18.168C32.5317 18.7543 32.6228 19.2483 32.8049 19.6499C32.9895 20.0491 33.2415 20.351 33.5608 20.5555C33.8826 20.7576 34.2506 20.8586 34.6648 20.8586C34.8943 20.8586 35.1088 20.8287 35.3084 20.7688C35.5105 20.7065 35.6913 20.6154 35.851 20.4957C36.0132 20.3759 36.1491 20.2287 36.2589 20.0541C36.3712 19.8794 36.4485 19.6799 36.4909 19.4553L37.8905 19.4628C37.8381 19.8271 37.7246 20.1688 37.55 20.4882C37.3778 20.8075 37.152 21.0894 36.8726 21.3339C36.5932 21.5759 36.2664 21.7655 35.8922 21.9027C35.518 22.0374 35.1026 22.1048 34.646 22.1048C33.9725 22.1048 33.3712 21.9489 32.8423 21.637C32.3134 21.3252 31.8968 20.8749 31.5924 20.2861C31.2881 19.6973 31.1359 18.9913 31.1359 18.168C31.1359 17.3423 31.2893 16.6362 31.5962 16.05C31.903 15.4612 32.3209 15.0109 32.8498 14.6991C33.3787 14.3872 33.9774 14.2313 34.646 14.2313C35.0726 14.2313 35.4693 14.2912 35.836 14.4109C36.2028 14.5307 36.5296 14.7065 36.8165 14.9386C37.1034 15.1681 37.3391 15.45 37.5238 15.7843C37.7109 16.1161 37.8331 16.4953 37.8905 16.9219ZM41.6093 22.1123C41.0479 22.1123 40.5615 21.9888 40.1498 21.7418C39.7382 21.4948 39.4188 21.1493 39.1918 20.7052C38.9673 20.2611 38.855 19.7422 38.855 19.1485C38.855 18.5547 38.9673 18.0346 39.1918 17.588C39.4188 17.1414 39.7382 16.7947 40.1498 16.5477C40.5615 16.3007 41.0479 16.1772 41.6093 16.1772C42.1706 16.1772 42.6571 16.3007 43.0687 16.5477C43.4803 16.7947 43.7984 17.1414 44.0229 17.588C44.25 18.0346 44.3635 18.5547 44.3635 19.1485C44.3635 19.7422 44.25 20.2611 44.0229 20.7052C43.7984 21.1493 43.4803 21.4948 43.0687 21.7418C42.6571 21.9888 42.1706 22.1123 41.6093 22.1123ZM41.6167 21.027C41.9211 21.027 42.1756 20.9435 42.3801 20.7763C42.5847 20.6067 42.7369 20.3796 42.8367 20.0952C42.939 19.8108 42.9901 19.494 42.9901 19.1447C42.9901 18.793 42.939 18.4749 42.8367 18.1905C42.7369 17.9036 42.5847 17.6753 42.3801 17.5057C42.1756 17.336 41.9211 17.2512 41.6167 17.2512C41.3049 17.2512 41.0454 17.336 40.8384 17.5057C40.6338 17.6753 40.4804 17.9036 40.3781 18.1905C40.2783 18.4749 40.2284 18.793 40.2284 19.1447C40.2284 19.494 40.2783 19.8108 40.3781 20.0952C40.4804 20.3796 40.6338 20.6067 40.8384 20.7763C41.0454 20.9435 41.3049 21.027 41.6167 21.027ZM46.8679 18.6321V22H45.5133V16.2521H46.808V17.2288H46.8754C47.0076 16.9069 47.2184 16.6512 47.5078 16.4616C47.7997 16.272 48.1602 16.1772 48.5893 16.1772C48.986 16.1772 49.3315 16.262 49.6259 16.4317C49.9228 16.6013 50.1523 16.8471 50.3144 17.1689C50.4791 17.4907 50.5602 17.8811 50.5577 18.3402V22H49.203V18.5497C49.203 18.1655 49.1032 17.8649 48.9036 17.6479C48.7066 17.4308 48.4334 17.3223 48.0841 17.3223C47.8471 17.3223 47.6363 17.3747 47.4517 17.4795C47.2696 17.5818 47.1261 17.7302 47.0213 17.9248C46.9191 18.1194 46.8679 18.3551 46.8679 18.6321ZM53.2895 18.6321V22H51.9348V16.2521H53.2296V17.2288H53.2969C53.4292 16.9069 53.64 16.6512 53.9294 16.4616C54.2213 16.272 54.5817 16.1772 55.0108 16.1772C55.4075 16.1772 55.753 16.262 56.0474 16.4317C56.3443 16.6013 56.5738 16.8471 56.736 17.1689C56.9006 17.4907 56.9817 17.8811 56.9792 18.3402V22H55.6246V18.5497C55.6246 18.1655 55.5248 17.8649 55.3252 17.6479C55.1281 17.4308 54.8549 17.3223 54.5057 17.3223C54.2687 17.3223 54.0578 17.3747 53.8732 17.4795C53.6911 17.5818 53.5477 17.7302 53.4429 17.9248C53.3406 18.1194 53.2895 18.3551 53.2895 18.6321ZM60.901 22.1123C60.3247 22.1123 59.827 21.9925 59.4079 21.753C58.9912 21.511 58.6707 21.1692 58.4461 20.7277C58.2216 20.2836 58.1093 19.7609 58.1093 19.1597C58.1093 18.5684 58.2216 18.0495 58.4461 17.603C58.6732 17.1539 58.99 16.8046 59.3966 16.5552C59.8033 16.3032 60.281 16.1772 60.8299 16.1772C61.1842 16.1772 61.5185 16.2346 61.8328 16.3493C62.1496 16.4616 62.429 16.6362 62.671 16.8732C62.9155 17.1103 63.1076 17.4121 63.2473 17.7788C63.387 18.1431 63.4569 18.5772 63.4569 19.0811V19.4965H58.7455V18.5834H62.1584C62.1559 18.324 62.0997 18.0932 61.99 17.8911C61.8802 17.6865 61.7268 17.5256 61.5297 17.4084C61.3351 17.2911 61.1081 17.2325 60.8486 17.2325C60.5717 17.2325 60.3284 17.2999 60.1189 17.4346C59.9093 17.5668 59.7459 17.7414 59.6287 17.9585C59.5139 18.173 59.4553 18.4088 59.4528 18.6657V19.4628C59.4528 19.7971 59.5139 20.084 59.6361 20.3235C59.7584 20.5605 59.9293 20.7426 60.1488 20.8699C60.3684 20.9946 60.6253 21.057 60.9197 21.057C61.1168 21.057 61.2952 21.0295 61.4548 20.9746C61.6145 20.9173 61.753 20.8337 61.8702 20.7239C61.9875 20.6142 62.076 20.4782 62.1359 20.316L63.4008 20.4582C63.3209 20.7925 63.1687 21.0844 62.9442 21.3339C62.7222 21.5809 62.4378 21.773 62.091 21.9102C61.7442 22.0449 61.3476 22.1123 60.901 22.1123ZM67.1102 22.1123C66.5364 22.1123 66.0437 21.9863 65.632 21.7343C65.2229 21.4823 64.9073 21.1343 64.6853 20.6902C64.4657 20.2437 64.3559 19.7298 64.3559 19.1485C64.3559 18.5647 64.4682 18.0495 64.6927 17.603C64.9173 17.1539 65.2341 16.8046 65.6432 16.5552C66.0549 16.3032 66.5414 16.1772 67.1027 16.1772C67.5692 16.1772 67.9821 16.2633 68.3413 16.4354C68.7031 16.6051 68.9912 16.8458 69.2058 17.1577C69.4203 17.467 69.5426 17.8287 69.5725 18.2429H68.2777C68.2253 17.966 68.1006 17.7352 67.9035 17.5506C67.7089 17.3635 67.4482 17.2699 67.1214 17.2699C66.8445 17.2699 66.6012 17.3448 66.3917 17.4944C66.1821 17.6416 66.0187 17.8537 65.9015 18.1306C65.7867 18.4075 65.7293 18.7393 65.7293 19.126C65.7293 19.5177 65.7867 19.8545 65.9015 20.1364C66.0162 20.4158 66.1771 20.6316 66.3842 20.7838C66.5938 20.9335 66.8395 21.0083 67.1214 21.0083C67.321 21.0083 67.4994 20.9709 67.6565 20.8961C67.8162 20.8187 67.9497 20.7077 68.0569 20.563C68.1642 20.4183 68.2378 20.2424 68.2777 20.0354H69.5725C69.5401 20.442 69.4203 20.8025 69.2133 21.1169C69.0062 21.4287 68.7243 21.6732 68.3675 21.8503C68.0108 22.0249 67.5917 22.1123 67.1102 22.1123ZM73.5551 16.2521V17.2999H70.2508V16.2521H73.5551ZM71.0666 14.8749H72.4212V20.2711C72.4212 20.4532 72.4487 20.5929 72.5035 20.6902C72.5609 20.785 72.6358 20.8499 72.7281 20.8848C72.8204 20.9198 72.9227 20.9372 73.0349 20.9372C73.1198 20.9372 73.1971 20.931 73.2669 20.9185C73.3393 20.906 73.3942 20.8948 73.4316 20.8848L73.6599 21.9439C73.5875 21.9688 73.484 21.9963 73.3493 22.0262C73.217 22.0561 73.0549 22.0736 72.8628 22.0786C72.5235 22.0886 72.2179 22.0374 71.946 21.9252C71.674 21.8104 71.4582 21.6333 71.2986 21.3938C71.1414 21.1543 71.0641 20.8549 71.0666 20.4957V14.8749ZM78.9747 22L76.8117 14.3361H78.3048L79.6857 19.968H79.7568L81.2312 14.3361H82.5896L84.0677 19.9718H84.1351L85.516 14.3361H87.0091L84.8461 22H83.4765L81.9422 16.6225H81.8823L80.3443 22H78.9747ZM88.9793 22.116C88.6151 22.116 88.287 22.0511 87.9951 21.9214C87.7057 21.7892 87.4762 21.5946 87.3066 21.3376C87.1394 21.0807 87.0558 20.7638 87.0558 20.3871C87.0558 20.0628 87.1157 19.7946 87.2355 19.5826C87.3552 19.3705 87.5186 19.2009 87.7257 19.0736C87.9328 18.9464 88.166 18.8504 88.4255 18.7855C88.6874 18.7181 88.9581 18.6695 89.2375 18.6395C89.5743 18.6046 89.8475 18.5734 90.0571 18.546C90.2666 18.5161 90.4188 18.4711 90.5136 18.4113C90.6109 18.3489 90.6595 18.2529 90.6595 18.1231V18.1007C90.6595 17.8188 90.576 17.6005 90.4088 17.4458C90.2417 17.2911 90.0009 17.2138 89.6866 17.2138C89.3548 17.2138 89.0916 17.2861 88.897 17.4308C88.7049 17.5755 88.5752 17.7464 88.5078 17.9435L87.243 17.7639C87.3427 17.4146 87.5074 17.1227 87.7369 16.8882C87.9664 16.6512 88.2471 16.4741 88.5789 16.3568C88.9107 16.2371 89.2774 16.1772 89.6791 16.1772C89.956 16.1772 90.2317 16.2096 90.5061 16.2745C90.7805 16.3394 91.0313 16.4466 91.2583 16.5963C91.4853 16.7435 91.6674 16.9443 91.8046 17.1988C91.9443 17.4533 92.0142 17.7714 92.0142 18.1531V22H90.7119V21.2104H90.667C90.5847 21.3701 90.4687 21.5198 90.319 21.6595C90.1718 21.7967 89.986 21.9077 89.7614 21.9925C89.5394 22.0748 89.2787 22.116 88.9793 22.116ZM89.3311 21.1206C89.603 21.1206 89.8388 21.067 90.0383 20.9597C90.2379 20.8499 90.3914 20.7052 90.4986 20.5256C90.6084 20.346 90.6633 20.1501 90.6633 19.9381V19.2607C90.6209 19.2957 90.5485 19.3281 90.4462 19.358C90.3464 19.388 90.2342 19.4142 90.1094 19.4366C89.9847 19.4591 89.8612 19.479 89.739 19.4965C89.6167 19.514 89.5107 19.5289 89.4209 19.5414C89.2188 19.5688 89.0379 19.6138 88.8783 19.6761C88.7186 19.7385 88.5926 19.8258 88.5003 19.9381C88.408 20.0478 88.3619 20.19 88.3619 20.3647C88.3619 20.6142 88.4529 20.8025 88.635 20.9297C88.8172 21.057 89.0492 21.1206 89.3311 21.1206ZM94.731 14.3361V22H93.3763V14.3361H94.731ZM97.4787 14.3361V22H96.124V14.3361H97.4787ZM101.416 22.1123C100.84 22.1123 100.342 21.9925 99.9232 21.753C99.5066 21.511 99.186 21.1692 98.9615 20.7277C98.737 20.2836 98.6247 19.7609 98.6247 19.1597C98.6247 18.5684 98.737 18.0495 98.9615 17.603C99.1885 17.1539 99.5054 16.8046 99.912 16.5552C100.319 16.3032 100.796 16.1772 101.345 16.1772C101.7 16.1772 102.034 16.2346 102.348 16.3493C102.665 16.4616 102.944 16.6362 103.186 16.8732C103.431 17.1103 103.623 17.4121 103.763 17.7788C103.902 18.1431 103.972 18.5772 103.972 19.0811V19.4965H99.2609V18.5834H102.674C102.671 18.324 102.615 18.0932 102.505 17.8911C102.396 17.6865 102.242 17.5256 102.045 17.4084C101.85 17.2911 101.623 17.2325 101.364 17.2325C101.087 17.2325 100.844 17.2999 100.634 17.4346C100.425 17.5668 100.261 17.7414 100.144 17.9585C100.029 18.173 99.9706 18.4088 99.9682 18.6657V19.4628C99.9682 19.7971 100.029 20.084 100.152 20.3235C100.274 20.5605 100.445 20.7426 100.664 20.8699C100.884 20.9946 101.141 21.057 101.435 21.057C101.632 21.057 101.811 21.0295 101.97 20.9746C102.13 20.9173 102.268 20.8337 102.386 20.7239C102.503 20.6142 102.591 20.4782 102.651 20.316L103.916 20.4582C103.836 20.7925 103.684 21.0844 103.46 21.3339C103.238 21.5809 102.953 21.773 102.606 21.9102C102.26 22.0449 101.863 22.1123 101.416 22.1123ZM107.989 16.2521V17.2999H104.684V16.2521H107.989ZM105.5 14.8749H106.855V20.2711C106.855 20.4532 106.882 20.5929 106.937 20.6902C106.994 20.785 107.069 20.8499 107.162 20.8848C107.254 20.9198 107.356 20.9372 107.468 20.9372C107.553 20.9372 107.631 20.931 107.7 20.9185C107.773 20.906 107.828 20.8948 107.865 20.8848L108.093 21.9439C108.021 21.9688 107.917 21.9963 107.783 22.0262C107.65 22.0561 107.488 22.0736 107.296 22.0786C106.957 22.0886 106.651 22.0374 106.379 21.9252C106.107 21.8104 105.892 21.6333 105.732 21.3938C105.575 21.1543 105.497 20.8549 105.5 20.4957V14.8749Z" fill="url(#paint1_radial_142_112)"/>
</g>
<rect x="0.1" y="0.1" width="138.8" height="36.9336" rx="8.43069" stroke="#1B1B1B" stroke-width="0.2"/>
<defs>
<linearGradient id="paint0_linear_142_112" x1="-23" y1="-5.50001" x2="148.5" y2="47" gradientUnits="userSpaceOnUse">
<stop stop-color="#131417"/>
<stop offset="1" stop-color="#104D85" stop-opacity="0"/>
</linearGradient>
<radialGradient id="paint1_radial_142_112" cx="0" cy="0" r="1" gradientUnits="userSpaceOnUse" gradientTransform="translate(38.8899 14.5523) rotate(19.3348) scale(75.7813 283.661)">
<stop stop-color="white"/>
<stop offset="0.500591" stop-color="#86C1D4"/>
<stop offset="1" stop-color="#392B50" stop-opacity="0.37"/>
</radialGradient>
<clipPath id="clip0_142_112">
<rect width="139" height="37.1336" rx="8.53069" fill="white"/>
</clipPath>
</defs>
</svg>
